<svg xmlns="http://www.w3.org/2000/svg" fill-rule="evenodd" stroke-linejoin="round" stroke-miterlimit="2" clip-rule="evenodd" viewBox="0 0 48 48"><path d="M34,38c0,-1.656 -1.344,-3 -3,-3c-0,0 -8,0 -8,0c-1.656,0 -3,1.344 -3,3l0,4c0,1.656 1.344,3 3,3l8,0c1.656,0 3,-1.344 3,-3l0,-4Zm-9,3l4,0c0.552,0 1,-0.448 1,-1c0,-0.552 -0.448,-1 -1,-1l-4,0c-0.552,0 -1,0.448 -1,1c0,0.552 0.448,1 1,1Zm-15.505,-8.007l5.705,7.607c0.189,0.252 0.485,0.4 0.8,0.4l2,0l0,-2l-1.5,0l-4.584,-6.112c1.556,-0.19 2.776,-0.61 3.592,-1.143c1.015,-0.664 1.492,-1.527 1.492,-2.412l-0,-1.84c-1.474,0.692 -3.88,1.174 -7,1.174c-3.12,-0 -5.526,-0.482 -7,-1.174l0,1.84c0,0.885 0.477,1.748 1.492,2.412c1.049,0.685 2.765,1.182 5.003,1.248Zm27.505,-17.993c-4.967,0 -9,4.033 -9,9c0,4.967 4.033,9 9,9c4.967,0 9,-4.033 9,-9c0,-4.967 -4.033,-9 -9,-9Zm-2.293,10.293l-1.293,-1.293c0,0 1.293,-1.293 1.293,-1.293c0.39,-0.39 0.39,-1.024 0,-1.414c-0.39,-0.39 -1.024,-0.39 -1.414,-0l-2,2c-0.391,0.39 -0.391,1.024 -0,1.414l2,2c0.39,0.39 1.024,0.39 1.414,0c0.39,-0.39 0.39,-1.024 0,-1.414Zm6,1.414l2,-2c0.391,-0.39 0.391,-1.024 0,-1.414l-2,-2c-0.39,-0.39 -1.024,-0.39 -1.414,-0c-0.39,0.39 -0.39,1.024 -0,1.414l1.293,1.293c-0,-0 -1.293,1.293 -1.293,1.293c-0.39,0.39 -0.39,1.024 -0,1.414c0.39,0.39 1.024,0.39 1.414,0Zm-23.707,-1.707c-0,0 9.055,0 9.055,0c-0.036,-0.329 -0.055,-0.662 -0.055,-1c0,-0.338 0.019,-0.671 0.055,-1l-9.055,0l-0,-0.913c-1.563,0.737 -4.113,1.246 -7,1.246c-2.887,0 -5.437,-0.509 -7,-1.246l0,2.913c0,0.102 0.091,0.175 0.187,0.265c0.162,0.149 0.378,0.284 0.639,0.412c1.259,0.617 3.394,0.99 6.174,0.99c2.78,-0 4.915,-0.373 6.174,-0.99c0.261,-0.128 0.477,-0.263 0.639,-0.412c0.096,-0.09 0.187,-0.163 0.187,-0.265Zm19.634,-2.366l-1,1.732c-0.276,0.478 -0.112,1.09 0.366,1.366c0.478,0.276 1.09,0.112 1.366,-0.366l1,-1.732c0.276,-0.478 0.112,-1.09 -0.366,-1.366c-0.478,-0.276 -1.09,-0.112 -1.366,0.366Zm-27.141,-7.625c-1.992,0.07 -3.736,0.551 -4.853,1.228c-1.092,0.662 -1.64,1.547 -1.64,2.43l0,1c0,0.096 0.115,0.143 0.217,0.227c0.192,0.158 0.443,0.301 0.741,0.437c1.362,0.619 3.564,1.002 6.042,1.002c2.478,0 4.68,-0.383 6.042,-1.002c0.298,-0.136 0.549,-0.279 0.741,-0.437c0.102,-0.084 0.217,-0.131 0.217,-0.227l-0,-1c0,-0.883 -0.548,-1.768 -1.64,-2.43c-0.847,-0.513 -2.054,-0.914 -3.457,-1.108l4.597,-6.129l1.5,0l-0,-2l-2,0c-0.315,0 -0.611,0.148 -0.8,0.4l-5.707,7.609Zm24.507,-5.009l0,-4c0,-1.656 -1.344,-3 -3,-3c-0,0 -8,0 -8,0c-1.656,0 -3,1.344 -3,3l-0,4c-0,1.656 1.344,3 3,3l8,0c1.656,0 3,-1.344 3,-3Zm-9,-1l4,0c0.552,0 1,-0.448 1,-1c0,-0.552 -0.448,-1 -1,-1l-4,0c-0.552,0 -1,0.448 -1,1c0,0.552 0.448,1 1,1Z"/></svg>