<?xml version="1.0" standalone="no"?>
<!DOCTYPE svg PUBLIC "-//W3C//DTD SVG 20010904//EN"
 "http://www.w3.org/TR/2001/REC-SVG-20010904/DTD/svg10.dtd">
<svg version="1.0" xmlns="http://www.w3.org/2000/svg"
 width="2048.000000pt" height="2048.000000pt" viewBox="0 0 2048.000000 2048.000000"
 preserveAspectRatio="xMidYMid meet">

<g transform="translate(0.000000,2048.000000) scale(0.100000,-0.100000)"
fill="#000000" stroke="none">
<path d="M8697 14389 c-108 -9 -235 -31 -342 -59 -38 -10 -101 -25 -139 -34
-170 -40 -409 -200 -618 -412 -124 -127 -194 -212 -284 -349 -228 -348 -371
-745 -426 -1185 -19 -156 -16 -565 6 -715 82 -570 322 -1086 668 -1436 350
-353 836 -544 1278 -499 353 35 647 158 940 393 642 516 993 1490 861 2391
-83 560 -336 1087 -687 1427 -294 283 -625 445 -985 478 -125 12 -129 12 -272
0z m279 -628 c430 -88 806 -453 982 -952 142 -403 141 -962 -4 -1396 -188
-566 -624 -983 -1102 -1053 -126 -19 -306 -9 -432 24 -451 117 -827 530 -970
1068 -54 204 -64 291 -64 548 0 180 4 258 17 335 76 434 237 772 491 1033 105
108 192 174 341 257 66 37 132 75 146 85 31 22 157 58 242 70 85 12 244 3 353
-19z"/>
<path d="M11338 11178 c-9 -7 -39 -74 -67 -148 -27 -74 -100 -263 -161 -420
-117 -299 -335 -868 -488 -1275 -167 -443 -298 -754 -326 -776 -14 -11 -26
-30 -26 -41 0 -20 -3 -20 -262 -14 -145 3 -1122 8 -2173 11 -1378 4 -1916 9
-1932 17 -28 14 -30 51 -9 160 78 409 511 1026 909 1296 l107 73 -30 42 c-70
96 -190 278 -239 362 -29 50 -56 95 -60 101 -30 51 -63 94 -74 94 -13 0 -16
-2 -164 -101 -328 -220 -581 -514 -786 -916 -194 -381 -297 -762 -336 -1246
-19 -222 -9 -477 18 -509 10 -11 1218 -18 3455 -19 l2109 -2 27 30 c17 18 54
104 100 229 40 109 109 291 152 404 44 113 129 333 190 490 60 157 127 332
148 390 47 129 122 317 278 695 154 371 139 342 176 350 57 12 1533 20 2682
15 l1131 -5 -55 -155 c-30 -85 -97 -272 -149 -415 -52 -143 -162 -449 -244
-680 -328 -918 -550 -1519 -574 -1545 -7 -8 -23 -37 -35 -63 -17 -36 -20 -51
-12 -59 8 -8 120 -12 369 -12 l357 -1 17 50 c10 28 65 176 124 330 177 465
609 1620 730 1950 179 491 209 570 304 807 49 123 96 243 104 268 9 25 30 83
46 130 21 58 28 87 20 95 -7 7 -812 10 -2562 12 -1404 0 -2601 4 -2662 8 -84
5 -114 3 -127 -7z"/>
<path d="M5112 6954 c-17 -12 -20 -31 -26 -176 -3 -90 -9 -234 -12 -322 l-7
-159 134 7 c74 3 1500 8 3169 11 4797 9 7517 24 7855 45 83 5 223 9 313 9
l162 1 0 301 0 301 -247 -7 c-353 -8 -665 -9 -6275 -3 -4214 5 -5050 3 -5066
-8z"/>
</g>
</svg>
